<?xml version="1.0" encoding="utf-8"?>
<!DOCTYPE svg PUBLIC "-//W3C//DTD SVG 20010904//EN" "http://www.w3.org/TR/2001/REC-SVG-20010904/DTD/svg10.dtd">
<svg version="1.0" xmlns="http://www.w3.org/2000/svg" width="700px" height="440px" viewBox="0 0 700 440" preserveAspectRatio="xMidYMid meet">
 <g fill="#fbfbf7">
  <path d="M200.5 261.6 c-1.8 -14.2 1.4 -25 8.5 -28.6 5.1 -2.6 10.1 -2.5 18.6 0.2 9.1 2.9 22.6 3.2 26.6 0.5 4.3 -3 6.1 -8 5.6 -15.7 -1.1 -15.4 -14.2 -28.4 -33.9 -33.5 -5.1 -1.4 -9.4 -1.6 -21.1 -1.3 -8.1 0.3 -14.5 0.1 -14.2 -0.3 1.1 -1.8 9.4 -6.9 14.5 -8.9 8.5 -3.4 14.4 -4.1 23.3 -3 33 4.1 51.6 40.2 35.8 69.4 -10.5 19.4 -34.3 29.2 -55.1 22.7 -5.6 -1.7 -6.1 -1.7 -6.1 -0.2 0 0.9 -0.4 2.2 -0.9 3 -0.6 1 -1.1 -0.4 -1.6 -4.3z"/>
  <path d="M342.6 244.3 c-0.4 -1.6 -0.9 -3.6 -1.2 -4.5 -0.5 -1.6 0.3 -1.8 6.5 -1.8 8.2 0 9.7 -1.1 3.7 -2.8 -11 -2.9 -17.6 -20.2 -10.3 -27 3.5 -3.3 7.2 -4.2 16.8 -4.2 l8.9 0 0 17.8 c0 9.7 -0.3 18.7 -0.6 20 -1 3.7 -5.3 5.2 -14.7 5.2 -8.4 0 -8.5 0 -9.1 -2.7z m14.1 -24.4 c-0.3 -3.3 -0.7 -6.2 -0.9 -6.4 -0.9 -0.9 -5.8 1 -6.3 2.5 -1.1 3.5 2.9 10 6.2 10 1.3 0 1.5 -1 1 -6.1z"/>
  <path d="M503.1 243.9 c-2 -5.7 -1.7 -5.9 5.8 -5.9 7.5 0 10.1 -1.3 4.9 -2.4 -8.3 -1.7 -14.8 -9.9 -14.8 -18.7 0 -9.9 4.6 -12.9 19.3 -12.9 l9.8 0 -0.3 19 c-0.4 23.8 -0.1 23.3 -14.2 23.8 l-9.3 0.4 -1.2 -3.3z m13.9 -23.7 c0 -3.2 -0.3 -6.1 -0.6 -6.4 -0.3 -0.3 -1.7 -0.3 -3.2 0.1 -3.6 1 -4.2 5.6 -1.2 9.4 3.5 4.5 5 3.5 5 -3.1z"/>
  <path d="M283 220.1 c0 -11.1 -0.3 -16 -1.1 -16.3 -0.9 -0.3 -0.9 -1.7 0.1 -5.6 l1.2 -5.2 11.9 0 c16.9 0 20.9 2 20.9 10.5 0 2.2 -0.9 4.9 -2.1 6.7 -2.1 2.9 -2.1 2.9 -0.1 5.1 4.3 4.7 5.4 10.1 3.1 15.1 -2.1 4.4 -6.3 5.6 -20.8 5.6 l-13.1 0 0 -15.9z m20.4 5.3 c0.9 -0.3 1.6 -1.2 1.6 -1.9 0 -1.4 -7.5 -8.5 -9 -8.5 -0.6 0 -1 2.5 -1 5.5 l0 5.5 3.4 0 c1.9 0 4.1 -0.3 5 -0.6z m-2.6 -17.4 c3.2 -3 2.7 -4 -1.8 -4 l-4 0 0 4 c0 3.6 0.2 4 1.8 3.1 0.9 -0.5 2.7 -1.9 4 -3.1z"/>
  <path d="M323 220 l0 -16 5.5 0 5.5 0 0 16 0 16 -5.5 0 -5.5 0 0 -16z"/>
  <path d="M393.2 219.7 c0.2 -9.1 0 -16.3 -0.4 -16 -1.1 0.6 -1 -2.5 0.3 -6.9 l1 -3.8 11.8 0 c6.5 0 13.2 0.5 14.9 1.1 6.3 2.2 8.3 10.4 3.8 15.6 l-2.4 2.7 3 3.7 c2 2.5 3.2 5.3 3.5 8.2 0.5 3.9 0.2 4.8 -2.5 7.8 l-3 3.4 -15.2 0.3 -15.1 0.3 0.3 -16.4z m21.8 4.8 c1.1 -1.3 0.6 -2.2 -2.9 -5.5 -2.3 -2.2 -4.6 -4 -5 -4 -1.2 0 -2.2 5.8 -1.5 8.6 0.5 2 1.2 2.4 4.4 2.4 2.1 0 4.3 -0.7 5 -1.5z m-4.5 -15.6 c1.9 -1.7 3.5 -3.5 3.5 -4 0 -0.5 -1.8 -0.9 -3.9 -0.9 -2.2 0 -4.1 -0.4 -4.3 -1 -0.2 -0.6 -0.8 -0.6 -1.8 0 -1.3 0.8 -1.2 1 0.3 1 1.3 0 1.7 0.9 1.7 4 0 2.2 0.2 4 0.5 4 0.2 0 2 -1.4 4 -3.1z"/>
  <path d="M444 234.9 c-6.5 -2.6 -11.2 -9.8 -11.4 -17.5 -0.1 -10 4.8 -13.4 19.4 -13.4 l9 0 0 16 0 16 -7.2 -0.1 c-4 0 -8.4 -0.5 -9.8 -1z m6 -15.5 c0 -6.3 -0.1 -6.5 -2.2 -5.8 -3.8 1.1 -5 2.6 -4.3 5.3 0.7 2.7 4.2 7.1 5.7 7.1 0.4 0 0.8 -3 0.8 -6.6z"/>
  <path d="M467 220 l0 -16 9.4 0 c16.9 0 18.6 1.9 18.6 20.4 l0 11.6 -5.5 0 -5.5 0 0 -10.5 c0 -10 -0.1 -10.6 -2.2 -11.4 -1.3 -0.5 -2.6 -0.7 -3 -0.4 -0.5 0.2 -0.8 5.3 -0.8 11.4 l0 10.9 -5.5 0 -5.5 0 0 -16z"/>
  <path d="M324.2 202.2 c-0.8 -0.6 -1.2 -2.4 -1 -4.8 l0.3 -3.9 5.3 -0.3 5.3 -0.3 -0.3 4.8 -0.3 4.8 -4 0.3 c-2.2 0.1 -4.6 -0.2 -5.3 -0.6z"/>
 </g>
 <g fill="#02a8de">
  <path d="M189.1 251 c-13 -12.9 -17.3 -33.6 -10.6 -50.3 1.4 -3.5 2.5 -6.7 2.5 -7 0 -0.4 -1.1 -0.7 -2.5 -0.7 -1.4 0 -2.5 -0.4 -2.5 -0.9 0 -1.7 16.6 -2.4 28.3 -1.2 17.7 1.7 27.3 5.7 36 15 4 4.2 4.8 5.7 4.5 8.3 -0.7 6.8 -9.7 9.3 -23.2 6.3 -6.3 -1.4 -8.5 -1.5 -12.3 -0.6 -6.9 1.8 -12.2 4.8 -14.3 8.4 -2.5 4 -2.7 15.1 -0.5 22.3 1.8 5.9 1.7 5.4 0.5 5.4 -0.5 0 -3.1 -2.2 -5.9 -5z"/>
 </g>
</svg>